<?xml version="1.0" encoding="utf-8"?>
<!-- Generator: Adobe Illustrator 17.1.0, SVG Export Plug-In . SVG Version: 6.00 Build 0)  -->
<!DOCTYPE svg PUBLIC "-//W3C//DTD SVG 1.1//EN" "http://www.w3.org/Graphics/SVG/1.1/DTD/svg11.dtd">
<svg version="1.1" id="Layer_1" xmlns="http://www.w3.org/2000/svg" xmlns:xlink="http://www.w3.org/1999/xlink" x="0px" y="0px"
	 viewBox="0 0 409 409" enable-background="new 0 0 409 409" xml:space="preserve">
<g>
	<polygon fill="#0B2343" stroke="#FFFFFF" stroke-width="6" stroke-miterlimit="10" points="3,40.2 39.3,3 123.3,3 123.3,327.2 
		159.3,327.2 159.3,406 3,406 3,326.2 41.3,326.2 41.3,93.2 3,93.2 	"/>
	<polygon fill="#0B2343" stroke="#FFFFFF" stroke-width="6" stroke-miterlimit="10" points="182.8,116.4 182.8,45.7 221.5,3 
		385.8,3 406,26.4 406,220.7 388.1,237.7 266.3,237.7 266.3,326.2 346.3,326.2 346.3,299.2 406,299.2 406,406 183.3,406 
		183.3,202.2 227.3,156 346.3,156 346.3,83.2 266.3,83.2 266.3,116.7 	"/>
</g>
<g>
	<path fill="#FFFFFF" d="M313.3,265.6c-14.4-2.8-33.3-3.7-41.3-3.7H81.9c-11.7,0-24.1,0-30.4-9.6c-6.3-9.8-2.8-19.4,7.8-38.7
		c0.9-1.3,33.5-62.6,33.5-62.6s3.3,4.1,6.7,6.7c3.3,2.6,6.7,3.9,15.9,3.9c16.1,0,120-0.2,121.1-0.2c21.1,0,42.4,2.2,56.3,17.4
		c7.2,0.9,30.2,3.9,49.4,13c11.1,5.4,18.5,13.3,21.3,23.1c0.9,3,1.3,6.1,1.3,9.4c0,9.1-3.5,19.4-10.2,30
		c-14.4,22.4-27.6,30.2-28.1,30.7c-8,5.7-16.1,6.1-16.1,6.1s7.2-8,9.6-16.1C322,266.7,313.3,265.6,313.3,265.6"/>
	<path fill="#0A2343" d="M339.6,196.7c-21.7-10.4-49.6-12.6-49.6-12.6c-12.2-14.8-32.8-17.2-53.5-17.2c0,0-104.8,0.2-121.1,0.2
		c-18.9,0-20.9-7.6-20.9-7.6l-25.7,47.8H135c20.9,0,21.7-2.2,35.7-12.2c14.6-10.9,26.3-14.6,40.2-14.6c13.9,0,23.1,3,38.5,10
		c15.4,6.7,23.5,10.2,32.8,6.3c0,0-7.2,9.8-29.1,0.7c-21.7-9.1-27.6-11.1-40.9-11.1c-13,0-28.1,6.3-46.8,25l22.4,18
		c0,0-5.2,8-8.5,13c-3.5,5-3,8.5-1.3,11.1c1.7,2.4,4.1,3.7,12.4,3.7s74.6-0.2,82-0.2c6.5,0,26.5,0.7,42.4,3.7
		c20.9,4.1,7.4,21.7,7.4,21.7s13.9-9.1,27.8-30.9C365.3,226.9,361.4,207.1,339.6,196.7"/>
	<path fill="#FFFFFF" d="M301.1,200.6c-9.8-2.4-1.5-8-1.5-8c-14.1,2.8-19.6,14.6-20.7,17.8c-0.2,0.4-0.4,0.9-0.7,1.3
		c-7.8,15.9-15,15-28.5,15h-23.1c-18.7,0-27.4,9.4-36.3,25h10.4c9.6-14.4,17-18.3,35.9-19.4c43.5,0,78.3,12.4,96.6,22
		C359.6,210.6,320.9,203.4,301.1,200.6"/>
	<path fill="#FFFFFF" d="M220.2,251.5c4.8-7.4,14.8-9.8,30.7-8.9c39.4,2.2,62,10,79.6,16.5c-21.7-12.6-60.2-21.7-87.2-21.7
		c-13,0-24.6,2.4-31.3,14.1H220.2z"/>
	<path fill="#FFFFFF" d="M262.4,208c-5.2,7.2-12,9.6-31.1,8.3c-22.4-1.5-16.5-10.9-13.9-15.4l0,0c0.7-1.3,2-3.5,3.3-5.9
		c-17.2-1.1-29.6,12.2-29.6,12.2c12.8,12.6,21.3,13.9,32.8,13.9h21.5c20,0,24.8-8.9,26.7-13C268.5,208.4,265.5,208.4,262.4,208"/>
	<path fill="#6BBE45" d="M252.9,205.8c-0.4-0.2-0.9-0.4-1.3-0.4c-2,2.2-5.4,3.3-8.7,2.8c-4.3-0.7-6.7-3.7-5.7-7
		c0.2-0.4,0.4-0.9,0.7-1.3c-2.2-0.9-4.3-1.7-6.5-2.4c-4.3,7.2-7,12,8.3,13.3c9.6,0.9,12.2-0.9,14.1-4.3
		C253.5,206.3,253.3,206,252.9,205.8"/>
	<path fill="#A6ACAF" d="M175.5,233.2c-8,13.7-11.1,17-5.4,23.5H81.9c-13,0-21.3-0.4-25.7-7.2c-4.1-6.5-3.3-12.6,8-33.1h74.8
		c12.8,0,16.1,0.7,23.3,6.1C169.1,228,175.5,233.2,175.5,233.2"/>
</g>
</svg>
